<svg xmlns="http://www.w3.org/2000/svg" width="24" height="24" viewBox="0 0 24 24">
  <defs>
    <style>
      .cls-1 {
        fill: #26ffda;
        opacity: 0;
      }

      .cls-2 {
        fill: #fff;
      }

      .cls-3 {
        fill: #5d5d5d;
      }
    </style>
  </defs>
  <g id="그룹_7918" data-name="그룹 7918" transform="translate(-1675 -25)">
    <rect id="사각형_1182" data-name="사각형 1182" class="cls-1" width="24" height="24" transform="translate(1675 25)"/>
    <g id="그룹_1728" data-name="그룹 1728" transform="translate(801 -1749)">
      <ellipse id="타원_19" data-name="타원 19" class="cls-2" cx="10" cy="10" rx="10" ry="10" transform="translate(876 1776)"/>
      <path id="패스_685" data-name="패스 685" class="cls-3" d="M55.362,432.241a10,10,0,1,0,10,10A10,10,0,0,0,55.362,432.241Zm5.456,17.382a.392.392,0,0,1-.185.333,9.59,9.59,0,0,1-10.542,0,.393.393,0,0,1-.185-.333v-1.995a5.459,5.459,0,0,1,3.8-5.2,3.6,3.6,0,1,1,3.307,0,5.459,5.459,0,0,1,3.8,5.2Z" transform="translate(830.638 1343.76)"/>
    </g>
  </g>
</svg>
