<svg xmlns="http://www.w3.org/2000/svg" width="24" height="24" viewBox="0 0 24 24">
  <defs>
    <style>
      .cls-1, .cls-2 {
        fill: #5d5d5d;
      }

      .cls-1 {
        opacity: 0;
      }
    </style>
  </defs>
  <g id="그룹_7919" data-name="그룹 7919" transform="translate(-1797 -25)">
    <rect id="사각형_1183" data-name="사각형 1183" class="cls-1" width="24" height="24" transform="translate(1797 25)"/>
    <g id="그룹_1592" data-name="그룹 1592" transform="translate(-72 -1875)">
      <path id="패스_574" data-name="패스 574" class="cls-2" d="M1871.823,1957.76h7.608a1.12,1.12,0,0,0,0-2.24h-7.608l1.448-1.448a1.12,1.12,0,0,0-1.583-1.584l-3.359,3.359c-.026.026-.051.053-.074.082l-.016.021c-.017.021-.034.043-.049.066l-.012.021c-.016.024-.031.048-.044.074l-.008.015c-.014.027-.028.055-.039.084l0,.011c-.012.03-.023.061-.033.092l0,.012c-.009.031-.017.062-.024.094,0,.01,0,.019,0,.029,0,.026-.009.053-.012.08a1.057,1.057,0,0,0-.006.112,1.069,1.069,0,0,0,.006.112c0,.027.007.054.012.081,0,.01,0,.019,0,.028.007.032.015.063.024.095l0,.011c.01.032.021.063.033.093l0,.01c.012.029.026.057.04.084l.007.015c.014.026.029.05.044.074l.012.02c.015.023.032.045.049.067l.016.022c.023.028.048.055.074.081l3.36,3.359a1.12,1.12,0,0,0,1.583-1.583Zm0,0" transform="translate(1 -44.64)"/>
      <path id="패스_575" data-name="패스 575" class="cls-2" d="M1958.241,1902a9.2,9.2,0,0,0-7.771,4.428,1.276,1.276,0,0,0,.311,1.7,1.1,1.1,0,0,0,1.588-.333,6.954,6.954,0,0,1,5.872-3.347,7.572,7.572,0,0,1,0,15.11,6.955,6.955,0,0,1-5.862-3.331,1.1,1.1,0,0,0-1.588-.329,1.275,1.275,0,0,0-.308,1.7,9.2,9.2,0,0,0,7.758,4.408c5.159,0,9.356-4.486,9.356-10s-4.2-10-9.356-10Zm0,0" transform="translate(-74.597 0)"/>
    </g>
  </g>
</svg>
