<svg xmlns="http://www.w3.org/2000/svg" width="11" height="11" viewBox="0 0 11 11">
    <defs>
        <style>
            .cls-2{fill:#2a2a41}
        </style>
    </defs>
    <g id="삭제_b" transform="translate(-2307.661 -1032.24)">
        <g id="그룹_8021">
            <path id="패스_10391" d="M2314.55 1034.7h-2.778a.351.351 0 0 1-.35-.351v-1.286a.35.35 0 0 1 .35-.35h2.778a.35.35 0 0 1 .35.35v1.286a.35.35 0 0 1-.35.351zm-2.427-.7h2.077v-.586h-2.077z" class="cls-2"/>
            <path id="패스_10392" d="M2317.293 1034.7h-8.263a.35.35 0 0 1 0-.7h8.263a.35.35 0 0 1 0 .7z" class="cls-2"/>
            <g id="그룹_8020">
                <path id="패스_10393" d="M2315.295 1042.763h-4.268a1.472 1.472 0 0 1-1.47-1.47v-6.939a.351.351 0 0 1 .35-.35h6.509a.351.351 0 0 1 .35.35v6.939a1.472 1.472 0 0 1-1.471 1.47zm-5.038-8.058v6.588a.771.771 0 0 0 .77.77h4.268a.77.77 0 0 0 .77-.77v-6.593z" class="cls-2"/>
                <path id="패스_10394" d="M2314.739 1040.014a.35.35 0 0 1-.35-.35v-2.56a.35.35 0 0 1 .7 0v2.56a.35.35 0 0 1-.35.35z" class="cls-2"/>
                <path id="패스_10395" d="M2313.161 1040.014a.35.35 0 0 1-.35-.35v-2.56a.35.35 0 1 1 .7 0v2.56a.35.35 0 0 1-.35.35z" class="cls-2"/>
                <path id="패스_10396" d="M2311.583 1040.014a.35.35 0 0 1-.35-.35v-2.56a.351.351 0 0 1 .7 0v2.56a.351.351 0 0 1-.35.35z" class="cls-2"/>
            </g>
        </g>
    </g>
</svg>
