<svg xmlns="http://www.w3.org/2000/svg" width="11" height="11" viewBox="0 0 11 11">
    <defs>
        <style>
            .cls-2{fill:#fff}
        </style>
    </defs>
    <g id="삭제_b" transform="translate(-2292.56 -1015.294)">
        <g id="그룹_8017">
            <path id="패스_10379" d="M2299.449 1017.867h-2.778a.459.459 0 0 1-.459-.459v-1.286a.459.459 0 0 1 .459-.459h2.778a.458.458 0 0 1 .459.459v1.286a.458.458 0 0 1-.459.459zm-2.319-.918h1.86v-.368h-1.86z" class="cls-2"/>
            <path id="패스_10380" d="M2302.192 1017.867h-8.263a.459.459 0 0 1 0-.918h8.263a.459.459 0 0 1 0 .918z" class="cls-2"/>
            <g id="그룹_8016">
                <path id="패스_10381" d="M2300.194 1025.926h-4.268a1.582 1.582 0 0 1-1.579-1.579v-6.939a.46.46 0 0 1 .459-.459h6.508a.459.459 0 0 1 .459.459v6.939a1.581 1.581 0 0 1-1.579 1.579zm-4.929-8.059v6.48a.662.662 0 0 0 .661.661h4.268a.662.662 0 0 0 .661-.661v-6.48z" class="cls-2"/>
                <path id="패스_10382" d="M2299.638 1023.127a.409.409 0 0 1-.409-.409v-2.56a.409.409 0 0 1 .818 0v2.56a.409.409 0 0 1-.409.409z" class="cls-2"/>
                <path id="패스_10383" d="M2298.061 1023.127a.409.409 0 0 1-.41-.409v-2.56a.41.41 0 0 1 .819 0v2.56a.409.409 0 0 1-.409.409z" class="cls-2"/>
                <path id="패스_10384" d="M2296.482 1023.127a.409.409 0 0 1-.409-.409v-2.56a.41.41 0 0 1 .819 0v2.56a.41.41 0 0 1-.41.409z" class="cls-2"/>
            </g>
        </g>
    </g>
</svg>
