<svg xmlns="http://www.w3.org/2000/svg" width="18" height="18" viewBox="0 0 18 18">
    <defs>
        <style>
            .cls-2{fill:#fff}
        </style>
    </defs>
    <g id="동기화" transform="translate(-4802.748 -644.647)">
        <g id="그룹_8025">
            <g id="그룹_8023">
                <path id="패스_10397" d="M4804.906 652.707a.588.588 0 0 1-.184-.031.566.566 0 0 1-.345-.323l-1.231-2.973a.572.572 0 1 1 1.058-.437l.98 2.366 2.215-1.289a.572.572 0 1 1 .575.99l-2.781 1.618a.559.559 0 0 1-.287.079z" class="cls-2"/>
                <path id="패스_10398" d="M4818.59 652.707a.574.574 0 0 1-.563-.461 6.4 6.4 0 0 0-12.559 0 .573.573 0 0 1-1.125-.222 7.55 7.55 0 0 1 14.809 0 .572.572 0 0 1-.451.673.541.541 0 0 1-.111.01z" class="cls-2"/>
            </g>
            <g id="그룹_8024">
                <path id="패스_10399" d="M4819.82 658.706a.571.571 0 0 1-.529-.354l-.979-2.367-2.215 1.29a.573.573 0 1 1-.576-.99l2.781-1.619a.573.573 0 0 1 .817.275l1.23 2.974a.571.571 0 0 1-.31.747.564.564 0 0 1-.219.044z" class="cls-2"/>
                <path id="패스_10400" d="M4811.749 661.348a7.569 7.569 0 0 1-7.406-6.076.573.573 0 0 1 1.125-.223 6.4 6.4 0 0 0 12.559 0 .565.565 0 0 1 .674-.45.571.571 0 0 1 .451.672 7.562 7.562 0 0 1-7.403 6.077z" class="cls-2"/>
            </g>
        </g>
    </g>
</svg>
