<svg id="icon_calendar_over" xmlns="http://www.w3.org/2000/svg" width="26" height="26" viewBox="0 0 26 26">
  <defs>
    <style>
      .cls-1 {
        fill: #707070;
      }

      .cls-2, .cls-3 {
        fill: #fff;
      }

      .cls-2 {
        stroke: #707070;
      }

      .cls-4 {
        stroke: none;
      }

      .cls-5 {
        fill: none;
      }
    </style>
  </defs>
  <rect id="사각형_3466" data-name="사각형 3466" class="cls-1" width="26" height="22" rx="4" transform="translate(0 4)"/>
  <g id="사각형_3467" data-name="사각형 3467" class="cls-2" transform="translate(4)">
    <rect class="cls-4" width="5" height="8" rx="2.5"/>
    <rect class="cls-5" x="0.5" y="0.5" width="4" height="7" rx="2"/>
  </g>
  <g id="사각형_3468" data-name="사각형 3468" class="cls-2" transform="translate(17)">
    <rect class="cls-4" width="5" height="8" rx="2.5"/>
    <rect class="cls-5" x="0.5" y="0.5" width="4" height="7" rx="2"/>
  </g>
  <g id="그룹_7821" data-name="그룹 7821">
    <circle id="타원_445" data-name="타원 445" class="cls-3" cx="1" cy="1" r="1" transform="translate(6 11)"/>
    <circle id="타원_448" data-name="타원 448" class="cls-3" cx="1" cy="1" r="1" transform="translate(6 15)"/>
    <circle id="타원_451" data-name="타원 451" class="cls-3" cx="1" cy="1" r="1" transform="translate(6 19)"/>
    <circle id="타원_446" data-name="타원 446" class="cls-3" cx="1" cy="1" r="1" transform="translate(12 11)"/>
    <circle id="타원_449" data-name="타원 449" class="cls-3" cx="1" cy="1" r="1" transform="translate(12 15)"/>
    <circle id="타원_452" data-name="타원 452" class="cls-3" cx="1" cy="1" r="1" transform="translate(12 19)"/>
    <circle id="타원_447" data-name="타원 447" class="cls-3" cx="1" cy="1" r="1" transform="translate(18 11)"/>
    <circle id="타원_450" data-name="타원 450" class="cls-3" cx="1" cy="1" r="1" transform="translate(18 15)"/>
    <circle id="타원_453" data-name="타원 453" class="cls-3" cx="1" cy="1" r="1" transform="translate(18 19)"/>
  </g>
</svg>
